<?xml version="1.0" encoding="UTF-8" standalone="no"?>
<!-- Created with Inkscape (http://www.inkscape.org/) -->

<svg
   width="32"
   height="32"
   viewBox="0 0 8.4666662 8.4666666"
   version="1.1"
   id="svg1"
   inkscape:version="1.3.2 (091e20ef0f, 2023-11-25)"
   sodipodi:docname="back.svg"
   xmlns:inkscape="http://www.inkscape.org/namespaces/inkscape"
   xmlns:sodipodi="http://sodipodi.sourceforge.net/DTD/sodipodi-0.dtd"
   xmlns="http://www.w3.org/2000/svg"
   xmlns:svg="http://www.w3.org/2000/svg">
  <sodipodi:namedview
     id="namedview1"
     pagecolor="#505050"
     bordercolor="#ffffff"
     borderopacity="1"
     inkscape:showpageshadow="0"
     inkscape:pageopacity="0"
     inkscape:pagecheckerboard="1"
     inkscape:deskcolor="#505050"
     inkscape:document-units="mm"
     inkscape:zoom="2.9398148"
     inkscape:cx="2.5511811"
     inkscape:cy="27.04252"
     inkscape:window-width="1920"
     inkscape:window-height="1011"
     inkscape:window-x="0"
     inkscape:window-y="0"
     inkscape:window-maximized="1"
     inkscape:current-layer="layer1" />
  <defs
     id="defs1" />
  <g
     inkscape:label="Layer 1"
     inkscape:groupmode="layer"
     id="layer1">
    <path
       style="fill:none;stroke-width:1;stroke-linecap:round;stroke-linejoin:round"
       d="M 8.4666666,8.4666666 C 8.4666666,0 0,0 0,0"
       id="path1" />
    <g
       id="path2"
       transform="matrix(0.84060865,0,0,0.84060865,0.67476672,0.67480937)"
       style="stroke-width:1.18961">
      <path
         style="color:#000000;fill:#121212;stroke-width:1.18961;stroke-linecap:round;stroke-linejoin:round;-inkscape-stroke:none"
         d="m 3.78125,2.2558594 a 0.5,0.5 0 0 0 -0.5,0.5 0.5,0.5 0 0 0 0.5,0.5 c 0.8085329,0 1.5313755,0.2195605 2.0214844,0.5390625 0.4901089,0.319502 0.7246093,0.7008798 0.7246093,1.078125 0,0.4543673 -0.1615887,0.8253617 -0.5039062,1.1152343 C 5.68112,6.2781539 5.1288454,6.4902344 4.3203125,6.4902344 a 0.5,0.5 0 0 0 -0.5,0.5 0.5,0.5 0 0 0 0.5,0.5 c 0.9846892,0 1.7872426,-0.2620721 2.3496094,-0.7382813 C 7.2322886,6.275744 7.5273437,5.5876809 7.5273437,4.8730469 7.5273438,4.0812906 7.0346529,3.4036111 6.3496094,2.9570313 5.6645659,2.5104514 4.7659392,2.2558594 3.78125,2.2558594 Z"
         id="path5" />
      <g
         id="g4"
         style="stroke-width:1.18961">
        <path
           d="M 3.868981,4.4805819 1.1716185,3.1319007 a 0.42000002,0.42000002 0 0 1 0,-0.7513188 L 3.868981,1.0319007 A 0.51914858,0.51914858 0 0 1 4.6202998,1.4962412 V 4.0162414 A 0.51914858,0.51914858 0 0 1 3.868981,4.4805819 Z"
           style="color:#000000;fill:#121212;fill-rule:evenodd;stroke-width:1.18961;-inkscape-stroke:none"
           id="path4" />
      </g>
    </g>
  </g>
</svg>
